<svg xmlns="http://www.w3.org/2000/svg" viewBox="0 0 750 483.55"><defs><style>.cls-1{fill:#8cb8bf;}</style></defs><title>Asset 9</title><g id="Layer_2" data-name="Layer 2"><g id="Layer_1-2" data-name="Layer 1"><path class="cls-1" d="M697.86,0c-56.05,0-80,40.89-80.66,93.37h-.66C616.15,40.89,602.47,0,537.24,0c-56.05,0-80,40.89-80.67,93.37h-.65C455.53,40.89,441.85,0,376.62,0c-56.05,0-80,40.89-80.67,93.37h-.65C294.91,40.89,281.23,0,216,0,160,0,136,40.89,135.33,93.37h-.66C134.28,40.89,120.6,0,55.38,0,31.16,0,12.94,7.64,0,20.54v463H750V14.49C738.1,5.28,721.31,0,697.86,0Z"/></g></g></svg>