<svg xmlns="http://www.w3.org/2000/svg" viewBox="0 0 1279.77 302.24"><defs><style>.cls-1{fill:#8cb8bf;}</style></defs><title>Asset 14</title><g id="Layer_2" data-name="Layer 2"><g id="Layer_1-2" data-name="Layer 1"><path class="cls-1" d="M1279.77,95.48V93.12h0c-.39-52.34-14-93.12-79.09-93.12-55.9,0-79.76,40.78-80.45,93.12h0c-.38-52.34-14-93.12-79.08-93.12-55.91,0-79.77,40.78-80.46,93.12H960C959.61,40.78,946,0,880.91,0,825,0,801.15,40.78,800.46,93.12h-.66C799.41,40.78,785.77,0,720.71,0,664.81,0,641,40.78,640.26,93.12h-.66C639.22,40.78,625.57,0,560.52,0c-55.91,0-79.76,40.78-80.46,93.12h-.65C479,40.78,465.38,0,400.32,0c-55.9,0-79.76,40.78-80.45,93.12h-.66C318.82,40.78,305.18,0,240.13,0c-55.91,0-79.77,40.78-80.46,93.12h-.11C159.17,40.78,145.52,0,80.47,0,24.57,0,.71,40.78,0,93.12H0V302.24H1279.77V95.48Z"/></g></g></svg>