<svg xmlns="http://www.w3.org/2000/svg" viewBox="0 0 1279.77 408.92"><defs><style>.cls-1{fill:#bf3721;}</style></defs><title>2105-1</title><g id="Layer_2" data-name="Layer 2"><g id="Layer_1-2" data-name="Layer 1"><path class="cls-1" d="M0,0V315.8H0c.39,52.34,14,93.12,79.09,93.12,55.9,0,79.76-40.78,80.45-93.12h0c.38,52.34,14,93.12,79.08,93.12,55.91,0,79.76-40.78,80.46-93.12h.65c.39,52.34,14,93.12,79.09,93.12,55.9,0,79.76-40.78,80.45-93.12H480c.39,52.34,14,93.12,79.08,93.12,55.91,0,79.77-40.78,80.46-93.12h.65c.39,52.34,14,93.12,79.09,93.12,55.91,0,79.76-40.78,80.45-93.12h.66c.39,52.34,14,93.12,79.09,93.12,55.9,0,79.76-40.78,80.45-93.12h.66c.39,52.34,14,93.12,79.08,93.12,55.91,0,79.77-40.78,80.46-93.12h.11c.39,52.34,14,93.12,79.09,93.12,55.9,0,79.76-40.78,80.45-93.12h0V0Z"/></g></g></svg>